<svg width="83" height="99" viewBox="0 0 83 99" fill="none" xmlns="http://www.w3.org/2000/svg">
<g id="Group">
<path id="Vector" fill-rule="evenodd" clip-rule="evenodd" d="M65.2444 48.0781C66.568 45.7729 69.5031 44.9821 71.7955 46.3131C74.3326 47.7839 77.5649 49.6647 80.102 51.1355C82.3944 52.4665 83.1809 55.4178 81.8572 57.7229C76.9223 66.3213 65.863 85.5773 63.2397 90.1489C62.8704 90.7951 62.3524 91.3497 61.729 91.7596C60.0312 92.8881 56.3049 95.362 52.7799 97.7009C51.2644 98.7088 49.3125 98.7666 47.7394 97.8552C46.1664 96.9389 45.2407 95.2125 45.351 93.3896C45.6052 89.1459 45.869 84.6707 45.9937 82.626C46.0368 81.8785 46.2527 81.1503 46.6268 80.5041C49.2502 75.9324 60.3094 56.6765 65.2444 48.0781ZM36.1238 96.9486C35.8121 95.6128 35.6922 94.2191 35.7737 92.8109C36.0279 88.572 36.2965 84.092 36.4164 82.0473C36.5507 79.8049 37.2028 77.6251 38.3202 75.6816L56.9379 43.2556C60.9089 36.3355 69.7093 33.9677 76.5914 37.9607L77.2341 38.332V14.9673C77.2341 6.97652 70.7932 0.5 62.8464 0.5H14.8876C11.0701 0.5 7.41085 2.02388 4.71557 4.7389C2.01549 7.44911 0.5 11.1286 0.5 14.9673V82.4813C0.5 86.3199 2.01549 89.9995 4.71557 92.7097C7.41085 95.4247 11.0701 96.9486 14.8876 96.9486H36.1238ZM19.6835 68.014H30.1145C32.7618 68.014 34.9104 65.8536 34.9104 63.1916C34.9104 60.5296 32.7618 58.3691 30.1145 58.3691H19.6835C17.0362 58.3691 14.8876 60.5296 14.8876 63.1916C14.8876 65.8536 17.0362 68.014 19.6835 68.014ZM19.6835 48.7243H40.5456C43.1929 48.7243 45.3415 46.5638 45.3415 43.9019C45.3415 41.2399 43.1929 39.0794 40.5456 39.0794H19.6835C17.0362 39.0794 14.8876 41.2399 14.8876 43.9019C14.8876 46.5638 17.0362 48.7243 19.6835 48.7243ZM19.6835 29.4346H48.4588C51.1061 29.4346 53.2547 27.2741 53.2547 24.6121C53.2547 21.9502 51.1061 19.7897 48.4588 19.7897H19.6835C17.0362 19.7897 14.8876 21.9502 14.8876 24.6121C14.8876 27.2741 17.0362 29.4346 19.6835 29.4346Z" fill="white"/>
</g>
</svg>
