<svg width="83" height="98" viewBox="0 0 83 98" fill="none" xmlns="http://www.w3.org/2000/svg">
<path id="Vector" d="M71.1042 0H11.8958C5.70141 0 0.666656 5.03475 0.666656 11.2292V86.7708C0.666656 92.9653 5.70141 98 11.8958 98H71.1042C77.2986 98 82.3333 92.9653 82.3333 86.7708V11.2292C82.3333 5.03475 77.2986 0 71.1042 0ZM36.3958 53.0833V32.977C46.1958 34.4674 53.75 42.875 53.75 53.0833C53.75 64.3411 44.5911 73.5 33.3333 73.5C28.809 73.5 24.6644 71.9728 21.2752 69.4698L35.4975 55.2475C36.0732 54.6758 36.3958 53.8959 36.3958 53.0833ZM30.2708 32.977V51.8175L16.9469 65.1414C14.4438 61.7523 12.9167 57.6077 12.9167 53.0833C12.9167 42.875 20.4708 34.4674 30.2708 32.977ZM67.0208 86.7708H15.9792C14.2887 86.7708 12.9167 85.3988 12.9167 83.7083C12.9167 82.0178 14.2887 80.6458 15.9792 80.6458H67.0208C68.7113 80.6458 70.0833 82.0178 70.0833 83.7083C70.0833 85.3988 68.7113 86.7708 67.0208 86.7708ZM67.0208 73.5H60.8958C59.2053 73.5 57.8333 72.128 57.8333 70.4375C57.8333 68.747 59.2053 67.375 60.8958 67.375H67.0208C68.7113 67.375 70.0833 68.747 70.0833 70.4375C70.0833 72.128 68.7113 73.5 67.0208 73.5ZM67.0208 62.2708H60.8958C59.2053 62.2708 57.8333 60.8988 57.8333 59.2083C57.8333 57.5178 59.2053 56.1458 60.8958 56.1458H67.0208C68.7113 56.1458 70.0833 57.5178 70.0833 59.2083C70.0833 60.8988 68.7113 62.2708 67.0208 62.2708ZM67.0208 50.0208H60.8958C59.2053 50.0208 57.8333 48.6488 57.8333 46.9583C57.8333 45.2678 59.2053 43.8958 60.8958 43.8958H67.0208C68.7113 43.8958 70.0833 45.2678 70.0833 46.9583C70.0833 48.6488 68.7113 50.0208 67.0208 50.0208ZM67.0208 38.7917H60.8958C59.2053 38.7917 57.8333 37.4197 57.8333 35.7292C57.8333 34.0387 59.2053 32.6667 60.8958 32.6667H67.0208C68.7113 32.6667 70.0833 34.0387 70.0833 35.7292C70.0833 37.4197 68.7113 38.7917 67.0208 38.7917Z" fill="white"/>
</svg>
