<svg width="97" height="92" viewBox="0 0 97 92" fill="none" xmlns="http://www.w3.org/2000/svg">
<g id="Group 33778">
<g id="Group">
<g id="Group_2">
<path id="Vector" d="M78.2974 25.9525L62.36 23.6366L55.2325 9.19515C52.4808 3.61841 44.5203 3.61634 41.7672 9.19496L34.6396 23.6366L18.7023 25.9525C12.5482 26.8466 10.0868 34.4164 14.5413 38.7589L26.0737 50.0003L23.3514 65.873C22.3 72.0018 28.7381 76.6824 34.2452 73.788L48.4998 66.2934L62.7549 73.788C68.2684 76.6861 74.6974 71.988 73.6481 65.873L70.9258 50.0003L82.4584 38.7589C86.9112 34.4179 84.4539 26.8471 78.2974 25.9525Z" fill="white"/>
</g>
</g>
<g id="Group_3">
<g id="Group_4">
<path id="Vector_2" d="M25.6354 6.62305L21.787 1.32649C20.7423 -0.110967 18.73 -0.429794 17.2925 0.614925C15.8549 1.65946 15.5362 3.67178 16.5808 5.10942L20.4291 10.406C21.4744 11.8442 23.4869 12.1619 24.9236 11.1175C26.3613 10.0732 26.6799 8.06069 25.6354 6.62305Z" fill="white"/>
</g>
</g>
<g id="Group_5">
<g id="Group_6">
<path id="Vector_3" d="M12.8646 54.09C12.3154 52.4 10.5005 51.4743 8.81 52.0241L2.45703 54.0885C0.766929 54.6373 -0.157876 56.4528 0.391162 58.1431C0.941332 59.8364 2.76002 60.7574 4.44579 60.2089L10.7989 58.1446C12.489 57.5957 13.4139 55.7803 12.8646 54.09Z" fill="white"/>
</g>
</g>
<g id="Group_7">
<g id="Group_8">
<path id="Vector_4" d="M79.7074 0.614918C78.27 -0.429801 76.2576 -0.111163 75.2129 1.32648L71.3645 6.62304C70.3198 8.06068 70.6387 10.0732 72.0763 11.1175C73.5145 12.1624 75.5265 11.8431 76.5708 10.406L80.4192 5.10941C81.4639 3.67177 81.145 1.65945 79.7074 0.614918Z" fill="white"/>
</g>
</g>
<g id="Group_9">
<g id="Group_10">
<path id="Vector_5" d="M94.5429 54.0885L88.1898 52.0241C86.4997 51.4739 84.6844 52.3999 84.1351 54.09C83.5859 55.7801 84.5107 57.5954 86.201 58.1446L92.5542 60.209C94.2409 60.7576 96.0588 59.8355 96.6088 58.1431C97.1578 56.453 96.233 54.6377 94.5429 54.0885Z" fill="white"/>
</g>
</g>
<g id="Group_11">
<g id="Group_12">
<path id="Vector_6" d="M48.4998 79.0339C46.7228 79.0339 45.2822 80.4745 45.2822 82.2516V88.7823C45.2822 90.5593 46.7228 92 48.4998 92C50.2769 92 51.7175 90.5593 51.7175 88.7823V82.2516C51.7177 80.4745 50.2771 79.0339 48.4998 79.0339Z" fill="white"/>
</g>
</g>
</g>
</svg>
