<svg width="79" height="98" viewBox="0 0 79 98" fill="none" xmlns="http://www.w3.org/2000/svg">
<g id="Group">
<path id="Vector" d="M69.7422 5.3699H65.9156C67.5617 8.39202 68.498 11.8557 68.498 15.5343C68.498 20.2931 64.6341 24.1645 59.8848 24.1645H19.1152C14.3659 24.1645 10.502 20.2929 10.502 15.5343C10.502 11.8557 11.4383 8.39221 13.0844 5.3699H9.25781C4.50845 5.3699 0.644531 9.24148 0.644531 14V89.3699C0.644531 94.1284 4.50845 98 9.25781 98H69.7422C74.4916 98 78.3555 94.1284 78.3555 89.3699V14C78.3555 9.24129 74.4916 5.3699 69.7422 5.3699ZM29.4075 81.5593L23.1551 87.8241C22.034 88.9474 20.216 88.9476 19.0948 87.8241L16.0323 84.7556C14.911 83.6323 14.911 81.8109 16.0323 80.6875C17.1533 79.5639 18.9713 79.5639 20.0926 80.6875L21.125 81.7219L25.3474 77.4914C26.4685 76.3678 28.2865 76.3678 29.4077 77.4914C30.5288 78.6146 30.5288 80.4358 29.4075 81.5593ZM29.4075 65.0661L23.1551 71.3308C22.034 72.4542 20.216 72.4543 19.0948 71.3308L16.0323 68.2624C14.911 67.139 14.911 65.3176 16.0323 64.1942C17.1533 63.0707 18.9713 63.0707 20.0926 64.1942L21.125 65.2286L25.3474 60.9981C26.4685 59.8746 28.2865 59.8746 29.4077 60.9981C30.5288 62.1213 30.5288 63.9427 29.4075 65.0661ZM23.9207 53.4314C22.7996 54.555 20.9816 54.555 19.8604 53.4314C18.7391 52.3081 18.7391 50.4867 19.8604 49.3633L30.1963 39.0071C31.3174 37.8835 33.1354 37.8835 34.2566 39.0071L42.9453 47.7124L49.7952 40.8492H49.4531C47.8675 40.8492 46.582 39.5612 46.582 37.9725C46.582 36.3838 47.8675 35.0959 49.4531 35.0959C57.3594 35.0959 58.0333 34.7569 59.1142 36.3756C59.7734 37.3629 59.5977 37.6969 59.5977 45.2603C59.5977 46.849 58.3122 48.137 56.7266 48.137C55.141 48.137 53.8555 46.849 53.8555 45.2603V44.9175L44.9754 53.8148C43.8543 54.9382 42.0363 54.9384 40.9151 53.8148L32.2266 45.1095L23.9207 53.4314ZM60.7461 85.5343H37.5859C36.0003 85.5343 34.7148 84.2463 34.7148 82.6576C34.7148 81.069 36.0003 79.781 37.5859 79.781H60.7461C62.3317 79.781 63.6172 81.069 63.6172 82.6576C63.6172 84.2463 62.3317 85.5343 60.7461 85.5343ZM60.7461 69.041H37.5859C36.0003 69.041 34.7148 67.753 34.7148 66.1644C34.7148 64.5757 36.0003 63.2877 37.5859 63.2877H60.7461C62.3317 63.2877 63.6172 64.5757 63.6172 66.1644C63.6172 67.753 62.3317 69.041 60.7461 69.041Z" fill="white"/>
<path id="Vector_2" d="M47.252 0H31.748C23.1991 0 16.2441 6.96872 16.2441 15.5343C16.2441 17.123 17.5296 18.411 19.1152 18.411H59.8848C61.4704 18.411 62.7559 17.123 62.7559 15.5343C62.7559 6.96872 55.8009 0 47.252 0Z" fill="white"/>
</g>
</svg>
