<svg width="25" height="24" viewBox="0 0 25 24" fill="none" xmlns="http://www.w3.org/2000/svg">
<g id="vuesax/linear/notification">
<g id="notification">
<path id="Vector" d="M12.3536 2.91016C9.04358 2.91016 6.35358 5.60016 6.35358 8.91016V11.8002C6.35358 12.4102 6.09358 13.3402 5.78358 13.8602L4.63358 15.7702C3.92358 16.9502 4.41358 18.2602 5.71358 18.7002C10.0236 20.1402 14.6736 20.1402 18.9836 18.7002C20.1936 18.3002 20.7236 16.8702 20.0636 15.7702L18.9136 13.8602C18.6136 13.3402 18.3536 12.4102 18.3536 11.8002V8.91016C18.3536 5.61016 15.6536 2.91016 12.3536 2.91016Z" stroke="#ACACAC" stroke-width="1.5" stroke-miterlimit="10" stroke-linecap="round"/>
<path id="Vector_2" d="M14.2034 3.19994C13.8934 3.10994 13.5734 3.03994 13.2434 2.99994C12.2834 2.87994 11.3634 2.94994 10.5034 3.19994C10.7934 2.45994 11.5134 1.93994 12.3534 1.93994C13.1934 1.93994 13.9134 2.45994 14.2034 3.19994Z" stroke="#ACACAC" stroke-width="1.5" stroke-miterlimit="10" stroke-linecap="round" stroke-linejoin="round"/>
<path id="Vector_3" d="M15.3535 19.0601C15.3535 20.7101 14.0035 22.0601 12.3535 22.0601C11.5335 22.0601 10.7735 21.7201 10.2335 21.1801C9.69351 20.6401 9.35352 19.8801 9.35352 19.0601" stroke="#ACACAC" stroke-width="1.5" stroke-miterlimit="10"/>
</g>
</g>
</svg>
