<svg width="25" height="24" viewBox="0 0 25 24" fill="none" xmlns="http://www.w3.org/2000/svg">
<g id="vuesax/bold/document-text">
<g id="document-text">
<path id="Vector" d="M8.16663 2.5H16.1666C17.8213 2.5 18.921 2.97026 19.6127 3.71523C20.3107 4.4669 20.6666 5.57665 20.6666 7V17C20.6666 18.4234 20.3107 19.5331 19.6127 20.2848C18.921 21.0297 17.8213 21.5 16.1666 21.5H8.16663C6.51193 21.5 5.41228 21.0297 4.72052 20.2848C4.02254 19.5331 3.66663 18.4234 3.66663 17V7C3.66663 5.57665 4.02254 4.4669 4.72052 3.71523C5.41228 2.97026 6.51193 2.5 8.16663 2.5ZM12.1666 11.75H8.16663C7.48048 11.75 6.91663 12.3139 6.91663 13C6.91663 13.6861 7.48048 14.25 8.16663 14.25H12.1666C12.8528 14.25 13.4166 13.6861 13.4166 13C13.4166 12.3139 12.8528 11.75 12.1666 11.75ZM8.16663 18.25H16.1666C16.8528 18.25 17.4166 17.6861 17.4166 17C17.4166 16.3139 16.8528 15.75 16.1666 15.75H8.16663C7.48048 15.75 6.91663 16.3139 6.91663 17C6.91663 17.6861 7.48048 18.25 8.16663 18.25ZM16.6666 9.75H18.6666C19.3528 9.75 19.9166 9.18614 19.9166 8.5C19.9166 7.81386 19.3528 7.25 18.6666 7.25H16.6666C16.2528 7.25 15.9166 6.91386 15.9166 6.5V4.5C15.9166 3.81386 15.3528 3.25 14.6666 3.25C13.9805 3.25 13.4166 3.81386 13.4166 4.5V6.5C13.4166 8.29614 14.8705 9.75 16.6666 9.75Z" fill="#1D3C92" stroke="#1D3C92"/>
</g>
</g>
</svg>
